<svg xmlns="http://www.w3.org/2000/svg" width="288" height="66" viewBox="0 0 288 66">
    <path fill="#FFF" fill-rule="evenodd" d="M36.58 16.885c4.325 2.697 7.644 6.29 9.864 10.889.06.123.243.186.395.296l.201-1.747h11.926V15.297H46.993c-.684-9.85-3.944-14.09-11.228-14.4 0 5.067-.016 10.022.035 14.977.003.345.433.795.78 1.011m10.267 21.852c-.018-6.285-2.136-11.725-6.456-16.309-6.475-6.87-17.175-9.156-25.844-5.44-.572.245-1.337.945-1.35 1.45-.108 4.212-.062 8.428-.062 12.642l.541.34c.084-.213.114-.477.26-.631 4.077-4.311 8.974-5.594 13.943-3.67 4.967 1.924 7.892 6.428 7.956 12.251.103 9.562 6.886 18.634 16.11 21.36 2.263.67 4.642.95 7.079 1.432V50.908c-.922-.161-1.772-.283-2.61-.462-5.354-1.141-9.552-6.273-9.567-11.71m-13.288 6.616c-3.164 4.275-7.436 6.08-12.598 5.009-5.155-1.07-8.455-4.376-9.52-9.603-.341-1.676-.293-3.447-.298-5.174-.022-7.984.07-15.969-.017-23.952C11.063 5.741 6.28 1.082.16.9c-.043.371-.104.65-.105.93C.03 13.573-.032 25.316.022 37.059c.01 2.41.08 4.932.764 7.21 3.56 11.848 12.99 18.252 25.312 17.255 5.296-.43 9.824-2.72 13.414-6.185L34.067 44.64c-.047.066-.272.393-.508.712M65.677 0a.575.575 0 0 0-.576.575v62.117a.575.575 0 0 0 1.15 0V.575A.575.575 0 0 0 65.678 0m83.1 25.976a.575.575 0 0 0 .44-.189.6.6 0 0 0 .188-.44V7.624a.575.575 0 0 0-.189-.44.575.575 0 0 0-.439-.188.575.575 0 0 0-.44.188.576.576 0 0 0-.188.44v17.725c0 .167.063.314.188.44a.574.574 0 0 0 .44.188m-13.693-11.143c1.09-.98 2.362-1.47 3.82-1.47 1.465 0 2.742.49 3.83 1.47 1.09.972 1.71 2.173 1.86 3.606h-11.369c.151-1.433.77-2.634 1.86-3.606m9.986 8.254a.587.587 0 0 0 .1-.465.589.589 0 0 0-.25-.415.62.62 0 0 0-.365-.126.644.644 0 0 0-.502.264c-1.14 1.583-2.856 2.375-5.15 2.375-1.458 0-2.73-.486-3.82-1.458-1.08-.962-1.7-2.152-1.859-3.567h12.035a.578.578 0 0 0 .44-.188.578.578 0 0 0 .188-.44c0-.938-.185-1.838-.553-2.701a6.881 6.881 0 0 0-1.495-2.223 7.037 7.037 0 0 0-2.211-1.483 6.931 6.931 0 0 0-2.725-.553c-.939 0-1.843.185-2.714.553a7.044 7.044 0 0 0-2.211 1.483 6.89 6.89 0 0 0-1.495 2.223 6.807 6.807 0 0 0-.552 2.7c0 .939.184 1.835.552 2.689.352.83.85 1.562 1.495 2.198a7.021 7.021 0 0 0 2.211 1.483c.871.36 1.775.54 2.714.54 1.34 0 2.532-.247 3.58-.741a6.622 6.622 0 0 0 2.587-2.148m-20.024 2.889c2.303 0 4.138-.955 5.503-2.864a.62.62 0 0 0 .125-.365.408.408 0 0 0-.012-.1.606.606 0 0 0-.728-.515.58.58 0 0 0-.403.251c-1.114 1.558-2.608 2.337-4.485 2.337-1.532 0-2.843-.557-3.931-1.671-1.08-1.105-1.621-2.441-1.621-4.008 0-1.565.54-2.9 1.62-4.006 1.09-1.114 2.4-1.671 3.932-1.671 1.877 0 3.371.779 4.485 2.337a.58.58 0 0 0 .402.25.62.62 0 0 0 .478-.1.65.65 0 0 0 .25-.414.407.407 0 0 0 .013-.101.621.621 0 0 0-.125-.365c-1.365-1.909-3.2-2.864-5.503-2.864-1.875 0-3.48.679-4.81 2.036-1.332 1.356-1.998 2.99-1.998 4.898 0 1.91.666 3.543 1.997 4.9 1.332 1.356 2.936 2.035 4.811 2.035m-16.92-.628c0 .042.004.088.012.138a.641.641 0 0 0 .615.49.597.597 0 0 0 .529-.289l3.53-5.49 3.516 5.49a.597.597 0 0 0 .528.289.63.63 0 0 0 .615-.49.866.866 0 0 0 .013-.138.6.6 0 0 0-.1-.34l-3.832-5.967 3.832-5.966a.602.602 0 0 0 .1-.34.869.869 0 0 0-.012-.138.632.632 0 0 0-.629-.49.64.64 0 0 0-.125.013.63.63 0 0 0-.39.277l-3.53 5.489-3.516-5.49a.631.631 0 0 0-.39-.276.857.857 0 0 0-.138-.013.63.63 0 0 0-.615.49.836.836 0 0 0-.014.139c0 .125.034.238.101.34l3.831 5.965-3.83 5.968c-.068.1-.102.213-.102.339m-3.705-2.3c-1.08 1.115-2.387 1.672-3.92 1.672-1.532 0-2.843-.557-3.932-1.671-1.08-1.105-1.62-2.441-1.62-4.008 0-1.565.54-2.9 1.62-4.006 1.09-1.114 2.4-1.671 3.932-1.671 1.533 0 2.84.557 3.92 1.67 1.088 1.106 1.633 2.442 1.633 4.007 0 1.567-.545 2.903-1.633 4.008m.892-8.906c-1.332-1.357-2.936-2.036-4.812-2.036-1.876 0-3.479.679-4.81 2.036-1.333 1.356-1.998 2.99-1.998 4.898 0 1.91.665 3.543 1.997 4.9 1.332 1.356 2.935 2.035 4.811 2.035s3.48-.679 4.812-2.035c1.331-1.357 1.997-2.99 1.997-4.9 0-1.909-.666-3.542-1.997-4.898M90.74 12.107a.576.576 0 0 0-.44.189.603.603 0 0 0-.188.44v12.612c0 .167.062.314.188.44a.574.574 0 0 0 .44.188.576.576 0 0 0 .44-.189.601.601 0 0 0 .188-.44V12.737a.603.603 0 0 0-.189-.44.577.577 0 0 0-.44-.189m0-3.58c.21 0 .388-.073.535-.22a.727.727 0 0 0 .22-.533.728.728 0 0 0-.22-.534.728.728 0 0 0-.534-.22.727.727 0 0 0-.534.22.728.728 0 0 0-.22.534c0 .209.073.387.22.533.146.147.324.22.534.22m-13.492 6.508c1.089-1.114 2.4-1.671 3.932-1.671 1.524 0 2.83.557 3.92 1.67 1.088 1.106 1.632 2.442 1.632 4.007 0 1.567-.544 2.903-1.633 4.008-1.089 1.114-2.395 1.67-3.919 1.67-1.532 0-2.843-.556-3.932-1.67-1.08-1.105-1.62-2.441-1.62-4.008 0-1.565.54-2.9 1.62-4.006m-2.248 10.94a.576.576 0 0 0 .44-.188.601.601 0 0 0 .188-.44V23.05c1.356 1.952 3.207 2.927 5.552 2.927 1.876 0 3.48-.679 4.811-2.035 1.324-1.357 1.985-2.99 1.985-4.9 0-1.909-.661-3.542-1.985-4.898-1.331-1.357-2.935-2.036-4.81-2.036-2.346 0-4.197.98-5.553 2.94V7.623a.576.576 0 0 0-.189-.44.576.576 0 0 0-.44-.188.575.575 0 0 0-.439.188.575.575 0 0 0-.189.44v17.725a.6.6 0 0 0 .19.44.574.574 0 0 0 .439.188m210.911 22.576c-.793-.574-2.08-1.111-3.863-1.612-1.404-.39-2.314-.732-2.728-1.025-.452-.342-.678-.873-.678-1.593s.287-1.33.86-1.831c.587-.513 1.289-.77 2.107-.77.61 0 1.165.147 1.666.44.5.305.86.702 1.08 1.19.207.44.531.74.97.898.44.159.873.14 1.3-.055.44-.195.74-.513.898-.953.17-.45.153-.89-.055-1.318-.501-1.098-1.282-1.977-2.344-2.637a6.601 6.601 0 0 0-3.515-.988c-1.77 0-3.278.586-4.523 1.758-1.257 1.184-1.886 2.606-1.886 4.266 0 1.88.696 3.32 2.087 4.321.794.586 2.075 1.124 3.846 1.611 1.403.38 2.313.727 2.728 1.044.476.354.714.897.714 1.63 0 .72-.293 1.33-.879 1.83-.574.514-1.27.77-2.087.77-.696 0-1.386-.238-2.07-.714a4.846 4.846 0 0 1-1.465-1.483 1.636 1.636 0 0 0-1.061-.77 1.675 1.675 0 0 0-1.3.202 1.72 1.72 0 0 0-.751 1.08c-.11.452-.043.88.201 1.282a8.425 8.425 0 0 0 2.509 2.582c1.245.83 2.557 1.245 3.937 1.245 1.758 0 3.265-.586 4.522-1.758 1.245-1.184 1.868-2.606 1.868-4.266 0-1.892-.696-3.35-2.088-4.376m-21.167-6.812c2.27 0 4.084.94 5.438 2.82.269.39.642.623 1.118.696.11.024.213.036.31.036.343 0 .66-.11.953-.329.39-.28.623-.653.696-1.117.024-.11.037-.214.037-.312 0-.341-.11-.664-.33-.97-2.039-2.844-4.78-4.266-8.222-4.266-2.808 0-5.2 1.013-7.178 3.04-1.99 2.014-2.984 4.449-2.984 7.305 0 2.845.995 5.274 2.984 7.288 1.978 2.014 4.37 3.021 7.178 3.021 3.443 0 6.183-1.422 8.222-4.266.22-.293.33-.61.33-.953 0-.097-.013-.201-.037-.31a1.595 1.595 0 0 0-.696-1.118c-.293-.22-.61-.33-.952-.33a1.45 1.45 0 0 0-.311.037c-.476.074-.85.3-1.118.678-1.354 1.892-3.167 2.838-5.438 2.838-1.855 0-3.442-.671-4.76-2.014-1.319-1.355-1.978-2.978-1.978-4.87 0-1.905.66-3.535 1.978-4.89 1.318-1.342 2.905-2.014 4.76-2.014m-15.289-3.442c-.476 0-.879.17-1.208.512-.342.33-.513.733-.513 1.209v17.23c0 .476.17.879.513 1.209.329.33.732.494 1.208.494s.88-.165 1.208-.494c.342-.33.513-.733.513-1.21V40.02c0-.476-.17-.879-.513-1.209a1.614 1.614 0 0 0-1.208-.512m1.071-6.674a2.212 2.212 0 0 0-1.07-.284c-.367 0-.727.094-1.081.284-.355.189-.629.46-.824.814-.195.355-.293.72-.293 1.1 0 .378.098.74.293 1.089.195.347.467.62.814.814.349.196.711.293 1.09.293.378 0 .742-.097 1.09-.293a2.09 2.09 0 0 0 .814-.814c.195-.349.293-.711.293-1.09 0-.378-.1-.744-.302-1.099a2.068 2.068 0 0 0-.824-.814M80.222 38.298h-2.674v-5.273c0-.477-.164-.88-.494-1.21a1.616 1.616 0 0 0-1.209-.512c-.475 0-.879.171-1.208.513-.342.33-.512.732-.512 1.209v5.273H71.47c-.477 0-.885.17-1.227.512-.33.33-.495.733-.495 1.209 0 .476.165.879.495 1.209.342.341.75.512 1.227.512h2.655v15.509c0 .476.17.879.512 1.209.33.33.733.494 1.208.494.477 0 .88-.165 1.21-.494.329-.33.493-.733.493-1.21V41.74h2.674c.476 0 .879-.17 1.209-.512.33-.33.494-.733.494-1.209 0-.476-.165-.879-.494-1.209a1.616 1.616 0 0 0-1.21-.512m163.321 0h-2.673v-5.273c0-.477-.165-.88-.495-1.21a1.615 1.615 0 0 0-1.208-.512c-.476 0-.879.171-1.208.513-.343.33-.513.732-.513 1.209v5.273h-2.655c-.477 0-.886.17-1.227.512-.33.33-.494.733-.494 1.209 0 .476.164.879.494 1.209.341.341.75.512 1.227.512h2.655v15.509c0 .476.17.879.513 1.209.33.33.732.494 1.208.494s.879-.165 1.208-.494c.33-.33.495-.733.495-1.21V41.74h2.673c.476 0 .879-.17 1.209-.512.33-.33.494-.733.494-1.209 0-.476-.165-.879-.494-1.209a1.616 1.616 0 0 0-1.209-.512m-14.374 0c-.476 0-.879.164-1.208.494-.342.342-.513.75-.513 1.227v8.606c0 1.904-.55 3.528-1.648 4.87-1.099 1.355-2.429 2.033-3.992 2.033-1.55 0-2.88-.678-3.991-2.033-1.099-1.342-1.648-2.966-1.648-4.87v-8.661c0-.476-.165-.879-.495-1.208a1.654 1.654 0 0 0-1.208-.513c-.477 0-.886.17-1.227.513-.33.33-.494.732-.494 1.208v8.66c0 2.845.885 5.28 2.654 7.307 1.77 2.014 3.907 3.021 6.41 3.021 2.111 0 3.991-.75 5.639-2.252v.549c0 .464.17.867.513 1.209.33.33.732.494 1.208.494s.879-.165 1.209-.494c.33-.342.494-.745.494-1.21V40.02c0-.476-.165-.885-.494-1.227a1.644 1.644 0 0 0-1.209-.494m-47.26 15.197c-1.317 1.343-2.905 2.015-4.76 2.015-1.856 0-3.442-.672-4.76-2.015-1.32-1.354-1.978-2.978-1.978-4.87 0-1.905.659-3.534 1.978-4.889 1.318-1.343 2.904-2.014 4.76-2.014 1.855 0 3.443.671 4.76 2.014 1.307 1.355 1.96 2.984 1.96 4.889 0 1.892-.653 3.516-1.96 4.87m-4.76-15.216c-2.563 0-4.81.867-6.738 2.6v-.878c0-.476-.165-.879-.495-1.209a1.652 1.652 0 0 0-1.208-.513c-.476 0-.885.171-1.227.513-.33.33-.494.733-.494 1.209v24.224c0 .477.164.88.494 1.209.342.33.751.494 1.227.494.464 0 .866-.165 1.208-.494.33-.33.495-.732.495-1.209v-7.891c1.928 1.733 4.175 2.6 6.738 2.6 2.795 0 5.188-1.007 7.178-3.021 1.977-2.015 2.966-4.444 2.966-7.288 0-2.857-.989-5.292-2.966-7.306-1.99-2.026-4.383-3.04-7.178-3.04m-19.391 15.235c-1.318 1.343-2.905 2.014-4.76 2.014-1.856 0-3.443-.671-4.761-2.014-1.319-1.355-1.978-2.978-1.978-4.87 0-1.905.66-3.535 1.978-4.89 1.318-1.342 2.905-2.014 4.76-2.014 1.856 0 3.443.672 4.761 2.014 1.306 1.355 1.96 2.985 1.96 4.89 0 1.892-.654 3.515-1.96 4.87m3.68-15.216c-.475 0-.878.17-1.208.512-.342.33-.513.733-.513 1.209v.879c-1.916-1.734-4.156-2.6-6.72-2.6-2.807 0-5.2 1.013-7.177 3.04-1.99 2.014-2.985 4.449-2.985 7.305 0 2.845.995 5.274 2.985 7.288 1.977 2.014 4.37 3.021 7.177 3.021 2.564 0 4.804-.867 6.72-2.6v.897c0 .476.171.879.513 1.209.33.33.733.494 1.209.494.476 0 .878-.165 1.208-.494.33-.33.494-.733.494-1.21V40.02c0-.476-.164-.879-.494-1.209a1.615 1.615 0 0 0-1.208-.512m-22.34 0c-2.282 0-4.302.8-6.06 2.398v-.677c0-.476-.165-.879-.495-1.209a1.653 1.653 0 0 0-1.208-.512c-.476 0-.885.17-1.227.512-.33.33-.494.733-.494 1.209v17.23c0 .476.165.879.494 1.209.342.33.751.494 1.227.494.464 0 .867-.165 1.208-.494.33-.33.495-.733.495-1.21v-8.605c0-1.904.592-3.534 1.776-4.889 1.184-1.342 2.612-2.014 4.285-2.014.476 0 .879-.17 1.208-.512.342-.33.513-.733.513-1.209 0-.476-.171-.879-.513-1.209a1.614 1.614 0 0 0-1.208-.512m54.86 6.843a6.848 6.848 0 0 1 3.487-2.951c1.49-.58 3.005-.641 4.547-.181a6.826 6.826 0 0 1 3.626 2.595l-12.573 4.902a6.824 6.824 0 0 1 .912-4.365m15.333 4.596a1.708 1.708 0 0 0-1.313.06c-.435.196-.73.514-.886.955-.722 1.945-2.266 3.379-4.631 4.301-1.501.586-3.016.652-4.541.198-1.51-.446-2.718-1.292-3.624-2.537l14.365-5.6c.443-.173.762-.481.957-.924.187-.427.194-.862.021-1.306a10.12 10.12 0 0 0-2.23-3.453 10.25 10.25 0 0 0-3.262-2.267c-2.636-1.147-5.284-1.202-7.945-.164a10.164 10.164 0 0 0-3.471 2.237c-.97.942-1.73 2.031-2.283 3.268-1.152 2.625-1.209 5.267-.171 7.928a10.073 10.073 0 0 0 2.224 3.437c.932.947 2.015 1.69 3.248 2.232 2.63 1.136 5.282 1.183 7.955.141 3.321-1.294 5.516-3.395 6.584-6.3.167-.446.155-.88-.036-1.303a1.654 1.654 0 0 0-.961-.903m-98.801-4.596a6.848 6.848 0 0 1 3.487-2.951c1.49-.58 3.006-.641 4.548-.181a6.827 6.827 0 0 1 3.626 2.595l-12.573 4.902a6.826 6.826 0 0 1 .912-4.365m15.333 4.596a1.708 1.708 0 0 0-1.314.06c-.434.196-.73.514-.885.955-.722 1.945-2.266 3.379-4.632 4.301-1.5.586-3.015.652-4.541.198-1.51-.446-2.718-1.292-3.623-2.537l14.364-5.6c.444-.173.763-.481.957-.924.187-.427.195-.862.022-1.306a10.119 10.119 0 0 0-2.23-3.453 10.253 10.253 0 0 0-3.262-2.267c-2.636-1.147-5.284-1.202-7.946-.164a10.166 10.166 0 0 0-3.47 2.237c-.97.942-1.731 2.031-2.284 3.268-1.152 2.625-1.208 5.267-.17 7.928a10.083 10.083 0 0 0 2.223 3.437c.933.947 2.016 1.69 3.248 2.232 2.632 1.136 5.283 1.183 7.956.141 3.32-1.294 5.515-3.395 6.584-6.3.167-.446.155-.88-.037-1.303a1.655 1.655 0 0 0-.96-.903M94.385 38.243c-2.283 0-4.303.8-6.061 2.399v-7.673c0-.476-.165-.878-.494-1.208a1.653 1.653 0 0 0-1.209-.513c-.476 0-.885.171-1.227.513-.33.33-.494.732-.494 1.208v24.225c0 .476.164.88.494 1.209.342.33.75.494 1.227.494.464 0 .867-.165 1.209-.494.33-.33.494-.733.494-1.209v-8.606c0-1.904.592-3.534 1.776-4.889 1.184-1.342 2.612-2.014 4.285-2.014 1.672 0 3.1.672 4.285 2.014 1.195 1.355 1.794 2.985 1.794 4.89v8.66c0 .464.165.867.494 1.209.33.33.732.494 1.209.494.476 0 .879-.165 1.208-.494.342-.342.512-.745.512-1.21v-8.66c0-2.856-.927-5.291-2.783-7.306-1.855-2.026-4.095-3.04-6.72-3.04"/>
</svg>
